# xmcd CD database file
#
# Track frame offsets:
#	150
#	19203
#	43499
#	64327
#	91441
#	107903
#	129699
#	151141
#	178462
#	194585
#	218461
#
# Disc length: 3084 seconds
#
# Revision: 0
# Processed by: cddbd v1.5.2PL0 Copyright (c) Steve Scherf et al.
# Submitted via: CDex 1.51
#
DISCID=a70c0a0b
DTITLE=Hot Swing - Hot Swing
DYEAR=2011
DGENRE=Jazz
TTITLE0=Stompin' at Decca
TTITLE1=Minor Swing
TTITLE2=Crazy Rhythm
TTITLE3=Tears
TTITLE4=On a Clear Day
TTITLE5=Nuages
TTITLE6=Swing Guitars
TTITLE7=I Wish You Love
TTITLE8=Sweet Georgia Brown
TTITLE9=Quizas, quizas, quizas
TTITLE10=I Can't Give You Anything But Love
EXTD=YEAR: 2011
EXTT0=
EXTT1=
EXTT2=
EXTT3=
EXTT4=
EXTT5=
EXTT6=
EXTT7=
EXTT8=
EXTT9=
EXTT10=
PLAYORDER=
